<?xml version="1.0" encoding="UTF-8"?><svg xmlns="http://www.w3.org/2000/svg" xmlns:xlink="http://www.w3.org/1999/xlink" fill-opacity="1" color-rendering="auto" color-interpolation="auto" text-rendering="auto" stroke="black" stroke-linecap="square" width="776" stroke-miterlimit="10" shape-rendering="auto" stroke-opacity="1" fill="black" stroke-dasharray="none" font-weight="normal" stroke-width="1" height="195" font-family="'Dialog'" font-style="normal" stroke-linejoin="miter" font-size="12px" stroke-dashoffset="0" image-rendering="auto">
  <!--Generated by ySVG 2.6-->
  <defs id="genericDefs"/>
  <g>
    <defs id="defs1">
      <clipPath clipPathUnits="userSpaceOnUse" id="clipPath1">
        <path d="M0 0 L776 0 L776 195 L0 195 L0 0 Z"/>
      </clipPath>
      <clipPath clipPathUnits="userSpaceOnUse" id="clipPath2">
        <path d="M416 140 L1192 140 L1192 335 L416 335 L416 140 Z"/>
      </clipPath>
    </defs>
    <g fill="white" text-rendering="geometricPrecision" shape-rendering="geometricPrecision" transform="translate(-416,-140)" stroke="white">
      <rect x="416" width="776" height="195" y="140" clip-path="url(#clipPath2)" stroke="none"/>
    </g>
    <g fill="rgb(235,235,235)" text-rendering="geometricPrecision" shape-rendering="geometricPrecision" transform="matrix(1,0,0,1,-416,-140)" stroke="rgb(235,235,235)">
      <rect x="431.7616" width="122" height="22.3765" y="155.9142" clip-path="url(#clipPath2)" stroke="none"/>
    </g>
    <g font-size="15px" stroke-linecap="butt" transform="matrix(1,0,0,1,-416,-140)" text-rendering="geometricPrecision" font-family="sans-serif" shape-rendering="geometricPrecision" stroke-miterlimit="1.45">
      <text x="482.7604" xml:space="preserve" y="172.9947" clip-path="url(#clipPath2)" stroke="none">БД</text>
      <rect x="431.7616" y="155.9142" clip-path="url(#clipPath2)" fill="none" width="122" rx="4" ry="4" height="163.8325"/>
    </g>
    <g fill="white" text-rendering="geometricPrecision" shape-rendering="geometricPrecision" transform="matrix(1,0,0,1,-416,-140)" stroke="white">
      <rect x="446.7616" width="92" height="29.712" y="193.2906" clip-path="url(#clipPath2)" stroke="none"/>
    </g>
    <g text-rendering="geometricPrecision" stroke-miterlimit="1.45" shape-rendering="geometricPrecision" transform="matrix(1,0,0,1,-416,-140)" stroke-linecap="butt">
      <rect fill="none" x="446.7616" width="92" height="29.712" y="193.2906" clip-path="url(#clipPath2)"/>
      <text x="461.4227" xml:space="preserve" y="212.8605" clip-path="url(#clipPath2)" font-family="sans-serif" stroke="none">Персонажи</text>
    </g>
    <g fill="white" text-rendering="geometricPrecision" shape-rendering="geometricPrecision" transform="matrix(1,0,0,1,-416,-140)" stroke="white">
      <rect x="446.7616" width="92" height="29.712" y="233.6506" clip-path="url(#clipPath2)" stroke="none"/>
    </g>
    <g text-rendering="geometricPrecision" stroke-miterlimit="1.45" shape-rendering="geometricPrecision" transform="matrix(1,0,0,1,-416,-140)" stroke-linecap="butt">
      <rect fill="none" x="446.7616" width="92" height="29.712" y="233.6506" clip-path="url(#clipPath2)"/>
      <text x="465.202" xml:space="preserve" y="253.2205" clip-path="url(#clipPath2)" font-family="sans-serif" stroke="none">Кампании</text>
    </g>
    <g fill="white" text-rendering="geometricPrecision" shape-rendering="geometricPrecision" transform="matrix(1,0,0,1,-416,-140)" stroke="white">
      <rect x="446.7616" width="92" height="29.712" y="275.0346" clip-path="url(#clipPath2)" stroke="none"/>
    </g>
    <g text-rendering="geometricPrecision" stroke-miterlimit="1.45" shape-rendering="geometricPrecision" transform="matrix(1,0,0,1,-416,-140)" stroke-linecap="butt">
      <rect fill="none" x="446.7616" width="92" height="29.712" y="275.0346" clip-path="url(#clipPath2)"/>
      <text x="452.9354" xml:space="preserve" y="294.6045" clip-path="url(#clipPath2)" font-family="sans-serif" stroke="none">Пользователи</text>
    </g>
    <g fill="white" text-rendering="geometricPrecision" shape-rendering="geometricPrecision" transform="matrix(1,0,0,1,-416,-140)" stroke="white">
      <rect x="897.932" width="98.96" height="30" y="222.8304" clip-path="url(#clipPath2)" stroke="none"/>
    </g>
    <g text-rendering="geometricPrecision" stroke-miterlimit="1.45" shape-rendering="geometricPrecision" transform="matrix(1,0,0,1,-416,-140)" stroke-linecap="butt">
      <rect fill="none" x="897.932" width="98.96" height="30" y="222.8304" clip-path="url(#clipPath2)"/>
      <text x="901.3661" xml:space="preserve" y="242.5443" clip-path="url(#clipPath2)" font-family="sans-serif" stroke="none">WEB интерфейс</text>
    </g>
    <g fill="white" text-rendering="geometricPrecision" shape-rendering="geometricPrecision" transform="matrix(1,0,0,1,-416,-140)" stroke="white">
      <rect x="1077.1264" width="98.96" height="32.2528" y="159.2176" clip-path="url(#clipPath2)" stroke="none"/>
    </g>
    <g text-rendering="geometricPrecision" stroke-miterlimit="1.45" shape-rendering="geometricPrecision" transform="matrix(1,0,0,1,-416,-140)" stroke-linecap="butt">
      <rect fill="none" x="1077.1264" width="98.96" height="32.2528" y="159.2176" clip-path="url(#clipPath2)"/>
      <text x="1104.5957" xml:space="preserve" y="172.7073" clip-path="url(#clipPath2)" font-family="sans-serif" stroke="none">Desktop</text>
      <text x="1092.4785" xml:space="preserve" y="187.4084" clip-path="url(#clipPath2)" font-family="sans-serif" stroke="none">приложение</text>
    </g>
    <g fill="white" text-rendering="geometricPrecision" shape-rendering="geometricPrecision" transform="matrix(1,0,0,1,-416,-140)" stroke="white">
      <rect x="1077.1264" width="98.96" height="32.2528" y="272.2864" clip-path="url(#clipPath2)" stroke="none"/>
    </g>
    <g text-rendering="geometricPrecision" stroke-miterlimit="1.45" stroke-dasharray="6,2" shape-rendering="geometricPrecision" transform="matrix(1,0,0,1,-416,-140)" stroke-linecap="butt">
      <rect fill="none" x="1077.1264" width="98.96" height="32.2528" y="272.2864" clip-path="url(#clipPath2)"/>
      <text x="1103.5703" y="293.1267" clip-path="url(#clipPath2)" font-family="sans-serif" stroke-dasharray="none" stroke="none" xml:space="preserve">Браузер</text>
    </g>
    <g fill="white" text-rendering="geometricPrecision" shape-rendering="geometricPrecision" transform="matrix(1,0,0,1,-416,-140)" stroke="white">
      <rect x="612.5616" width="111.248" height="59.9008" y="207.88" clip-path="url(#clipPath2)" stroke="none"/>
    </g>
    <g text-rendering="geometricPrecision" stroke-miterlimit="1.45" shape-rendering="geometricPrecision" transform="matrix(1,0,0,1,-416,-140)" stroke-linecap="butt">
      <rect fill="none" x="612.5616" width="111.248" height="59.9008" y="207.88" clip-path="url(#clipPath2)"/>
      <text x="644.836" xml:space="preserve" y="242.5443" clip-path="url(#clipPath2)" font-family="sans-serif" stroke="none">Backend</text>
    </g>
    <g fill="white" text-rendering="geometricPrecision" shape-rendering="geometricPrecision" transform="matrix(1,0,0,1,-416,-140)" stroke="white">
      <rect x="701.8416" width="74.384" height="30" y="222.8304" clip-path="url(#clipPath2)" stroke="none"/>
    </g>
    <g text-rendering="geometricPrecision" stroke-miterlimit="1.45" shape-rendering="geometricPrecision" transform="matrix(1,0,0,1,-416,-140)" stroke-linecap="butt">
      <rect fill="none" x="701.8416" width="74.384" height="30" y="222.8304" clip-path="url(#clipPath2)"/>
      <text x="729.3627" xml:space="preserve" y="242.5443" clip-path="url(#clipPath2)" font-family="sans-serif" stroke="none">API</text>
      <path fill="none" d="M990.428 222.8304 L1080.3601 191.4704" clip-path="url(#clipPath2)"/>
      <path fill="none" d="M996.892 251.7975 L1077.1263 274.4457" clip-path="url(#clipPath2)"/>
      <path fill="none" d="M612.5616 237.8304 L553.7438 237.8304" clip-path="url(#clipPath2)"/>
      <path fill="none" d="M897.932 237.8304 L776.2256 237.8304" clip-path="url(#clipPath2)"/>
      <text x="813.325" xml:space="preserve" y="229.5836" clip-path="url(#clipPath2)" font-family="sans-serif" stroke="none">Интернет</text>
    </g>
  </g>
</svg>
