<?xml version="1.0" encoding="UTF-8"?><svg xmlns="http://www.w3.org/2000/svg" xmlns:xlink="http://www.w3.org/1999/xlink" fill-opacity="1" color-rendering="auto" color-interpolation="auto" text-rendering="auto" stroke="black" stroke-linecap="square" width="1344" stroke-miterlimit="10" shape-rendering="auto" stroke-opacity="1" fill="black" stroke-dasharray="none" font-weight="normal" stroke-width="1" height="555" font-family="'Dialog'" font-style="normal" stroke-linejoin="miter" font-size="12px" stroke-dashoffset="0" image-rendering="auto">
  <!--Generated by ySVG 2.6-->
  <defs id="genericDefs"/>
  <g>
    <g fill="white" text-rendering="geometricPrecision" shape-rendering="geometricPrecision" transform="translate(-86,57)" stroke="white">
      <rect x="86" width="1344" height="555" y="-57" clip-path="url(#clipPath2)" stroke="none"/>
    </g>
    <g fill="white" text-rendering="geometricPrecision" shape-rendering="geometricPrecision" transform="matrix(1,0,0,1,-86,57)" stroke="white">
      <path d="M944.1968 -30.5647 L1014.3488 -30.5647 L1014.3488 -15.5647 L1029.3488 -15.5647 L1029.3488 -2.5647 L944.1968 -2.5647 Z" stroke="none" clip-path="url(#clipPath2)"/>
      <path d="M1014.3488 -30.5647 L1014.3488 -15.5647 L1029.3488 -15.5647 Z" clip-path="url(#clipPath2)" fill-rule="evenodd" stroke="none"/>
    </g>
    <g text-rendering="geometricPrecision" stroke-miterlimit="1.45" shape-rendering="geometricPrecision" transform="matrix(1,0,0,1,-86,57)" stroke-linecap="butt">
      <path fill="none" d="M944.1968 -30.5647 L1014.3488 -30.5647 L1014.3488 -15.5647 L1029.3488 -15.5647 L1029.3488 -2.5647 L944.1968 -2.5647 Z" clip-path="url(#clipPath2)"/>
      <path fill="none" d="M1014.3488 -30.5647 L1014.3488 -15.5647 L1029.3488 -15.5647 Z" clip-path="url(#clipPath2)" fill-rule="evenodd"/>
      <text x="967.3578" xml:space="preserve" y="-19.2014" clip-path="url(#clipPath2)" font-family="sans-serif" stroke="none">будучи</text>
      <text x="966.0629" xml:space="preserve" y="-4.5002" clip-path="url(#clipPath2)" font-family="sans-serif" stroke="none">ГМом...</text>
    </g>
    <g fill="white" text-rendering="geometricPrecision" shape-rendering="geometricPrecision" transform="matrix(1,0,0,1,-86,57)" stroke="white">
      <path d="M1137.376 -6.4249 L1222.376 -6.4249 L1222.376 8.5751 L1237.376 8.5751 L1237.376 21.5751 L1137.376 21.5751 Z" stroke="none" clip-path="url(#clipPath2)"/>
      <path d="M1222.376 -6.4249 L1222.376 8.5751 L1237.376 8.5751 Z" clip-path="url(#clipPath2)" fill-rule="evenodd" stroke="none"/>
    </g>
    <g text-rendering="geometricPrecision" stroke-miterlimit="1.45" shape-rendering="geometricPrecision" transform="matrix(1,0,0,1,-86,57)" stroke-linecap="butt">
      <path fill="none" d="M1137.376 -6.4249 L1222.376 -6.4249 L1222.376 8.5751 L1237.376 8.5751 L1237.376 21.5751 L1137.376 21.5751 Z" clip-path="url(#clipPath2)"/>
      <path fill="none" d="M1222.376 -6.4249 L1222.376 8.5751 L1237.376 8.5751 Z" clip-path="url(#clipPath2)" fill-rule="evenodd"/>
      <text x="1167.9609" xml:space="preserve" y="4.9384" clip-path="url(#clipPath2)" font-family="sans-serif" stroke="none">будучи</text>
      <text x="1160.0742" xml:space="preserve" y="19.6395" clip-path="url(#clipPath2)" font-family="sans-serif" stroke="none">игроком...</text>
    </g>
    <g text-rendering="geometricPrecision" shape-rendering="geometricPrecision" transform="matrix(1.4743,0,0,1.4523,230.7767,315)">
      <g clip-path="url(#clipPath3)">
        <svg xmlns:svg="http://www.w3.org/2000/svg" xmlns:sodipodi="http://sodipodi.sourceforge.net/DTD/sodipodi-0.dtd" xmlns:inkscape="http://www.inkscape.org/namespaces/inkscape" xmlns:dc="http://purl.org/dc/elements/1.1/" xmlns:cc="http://web.resource.org/cc/" xmlns:rdf="http://www.w3.org/1999/02/22-rdf-syntax-ns#" opacity="1" writing-mode="lr-tb" stop-color="rgb(0, 0, 0)" shape-rendering="auto" glyph-orientation-horizontal="0deg" color-profile="auto" lighting-color="rgb(255, 255, 255)" color="rgb(0, 0, 0)" font-weight="400" alignment-baseline="auto" font-style="normal" version="1.0" color-interpolation-filters="linearrgb" text-anchor="start" stroke-linecap="butt" color-interpolation="srgb" font-variant="normal" word-spacing="normal" fill-opacity="1" text-rendering="auto" clip-path="none" text-decoration="none" letter-spacing="normal" glyph-orientation-vertical="auto" display="inline" font-size-adjust="none" overflow="hidden" fill="rgb(0, 0, 0)" font-stretch="normal" stroke-dasharray="none" inkscape:version="0.45.1" id="svg1.svg2" stroke-miterlimit="4" stop-opacity="1" color-rendering="auto" font-size="12" sodipodi:docbase="C:\Daten\alberts\projects\yfx" pointer-events="visiblepainted" mask="none" direction="ltr" baseline-shift="baseline" sodipodi:docname="uml_actor.svg" enable-background="accumulate" fill-rule="nonzero" image-rendering="auto" stroke-dashoffset="0" inkscape:output_extension="org.inkscape.output.svg.inkscape" marker-end="none" width="41" clip="auto" cursor="auto" stroke="none" filter="none" visibility="visible" kerning="auto" stroke-width="1" font-family="&quot;Arial&quot;,&quot;Helvetica&quot;,sans-serif" flood-opacity="1" clip-rule="nonzero" src="none" height="68.997391" unicode-bidi="normal" sodipodi:version="0.32" stroke-linejoin="miter" stroke-opacity="1" flood-color="rgb(0, 0, 0)" dominant-baseline="auto" marker-start="none" marker-mid="none">
            
          <defs id="svg1.defs4">
            <clipPath clipPathUnits="userSpaceOnUse" id="clipPath1">
              <path d="M0 0 L1344 0 L1344 555 L0 555 L0 0 Z"/>
            </clipPath>
            <clipPath clipPathUnits="userSpaceOnUse" id="clipPath2">
              <path d="M86 -57 L1430 -57 L1430 498 L86 498 L86 -57 Z"/>
            </clipPath>
            <clipPath clipPathUnits="userSpaceOnUse" id="clipPath3">
              <path d="M-156.5322 -216.8961 L755.0819 -216.8961 L755.0819 165.2542 L-156.5322 165.2542 L-156.5322 -216.8961 Z"/>
            </clipPath>
            <clipPath clipPathUnits="userSpaceOnUse" id="clipPath4">
              <path d="M-592.669 -216.8961 L318.9451 -216.8961 L318.9451 165.2542 L-592.669 165.2542 L-592.669 -216.8961 Z"/>
            </clipPath>
          </defs>
            
  
          <metadata id="svg1.metadata7">
    
  </metadata>
            
          <g inkscape:groupmode="layer" id="svg1.layer1" transform="translate(-29.5,-42.959476)" inkscape:label="Ebene 1">
                
            <a id="svg1.a3142" transform="matrix(1.0873906,0,0,1,-4.4741999,0)">
                    
              <path transform="translate(11.586889,5.2908993)" style="fill:none;fill-rule:evenodd;stroke:#000000;stroke-width:1px;stroke-linecap:butt;stroke-linejoin:miter;stroke-opacity:1" sodipodi:cx="38.509369" sodipodi:cy="47.36993" sodipodi:rx="8.5197716" id="svg1.path2160" d="M 47.02914 47.36993 A 8.5197716 9.2013531 0 1 1  29.989597,47.36993 A 8.5197716 9.2013531 0 1 1  47.02914 47.36993 z" sodipodi:ry="9.2013531" sodipodi:type="arc"/>
                  
            </a>
                
            <path style="fill:none" sodipodi:cx="43.962021" sodipodi:cy="48.392303" d="M 47.71072 48.392303 A 3.7486994 0 0 1 1  40.213321,48.392303 A 3.7486994 0 0 1 1  47.71072 48.392303 z" id="svg1.path3134" sodipodi:rx="3.7486994" sodipodi:ry="0" sodipodi:type="arc"/>
                
            <path style="fill:none;fill-rule:evenodd;stroke:#000000;stroke-width:1.24319649px;stroke-linecap:butt;stroke-linejoin:miter;stroke-opacity:1" d="M 50,61.33709 C 50,91.363211 50,92.247838 50,92.247838" id="svg1.path3136"/>
                
            <path style="fill:none;fill-rule:evenodd;stroke:#000000;stroke-width:1px;stroke-linecap:butt;stroke-linejoin:miter;stroke-opacity:1" d="M 69.760668,72.362183 C 69.760668,72.362183 69.760668,72.362183 50.239332,72.362183 C 30.239332,72.362183 30.239332,72.362183 30.239332,72.362183 L 30.239332,72.362183" id="svg1.path3138"/>
                
            <path style="fill:none;fill-rule:evenodd;stroke:#000000;stroke-width:1px;stroke-linecap:butt;stroke-linejoin:miter;stroke-opacity:1" d="M 30,111.45687 C 30,111.45687 30,111.45687 50,92.013532 C 70,111.45687 70,111.45687 70,111.45687" id="svg1.path3140"/>
              
          </g>
          
        </svg>
      </g>
    </g>
    <g font-size="13px" stroke-linecap="butt" transform="matrix(1,0,0,1,-86,57)" text-rendering="geometricPrecision" font-family="sans-serif" shape-rendering="geometricPrecision" stroke-miterlimit="1.45">
      <text x="288.6396" xml:space="preserve" y="377.0698" clip-path="url(#clipPath2)" stroke="none">Неавторизованный</text>
      <text x="305.2515" xml:space="preserve" y="392.9961" clip-path="url(#clipPath2)" stroke="none">пользователь</text>
    </g>
    <g fill="white" text-rendering="geometricPrecision" shape-rendering="geometricPrecision" transform="matrix(1,0,0,1,-86,57)" stroke="white">
      <ellipse rx="66" ry="25" clip-path="url(#clipPath2)" cx="167.5" cy="355.5" stroke="none"/>
    </g>
    <g font-size="13px" stroke-linecap="butt" transform="matrix(1,0,0,1,-86,57)" text-rendering="geometricPrecision" font-family="sans-serif" shape-rendering="geometricPrecision" stroke-miterlimit="1.45">
      <text x="119.0769" xml:space="preserve" y="360.6067" clip-path="url(#clipPath2)" stroke="none">Авторизоваться</text>
      <ellipse rx="66" fill="none" ry="25" clip-path="url(#clipPath2)" cx="167.5" cy="355.5"/>
    </g>
    <g text-rendering="geometricPrecision" shape-rendering="geometricPrecision" transform="matrix(1.4743,0,0,1.4523,873.7767,315)">
      <g clip-path="url(#clipPath4)">
        <svg xmlns:svg="http://www.w3.org/2000/svg" xmlns:sodipodi="http://sodipodi.sourceforge.net/DTD/sodipodi-0.dtd" xmlns:inkscape="http://www.inkscape.org/namespaces/inkscape" xmlns:dc="http://purl.org/dc/elements/1.1/" xmlns:cc="http://web.resource.org/cc/" xmlns:rdf="http://www.w3.org/1999/02/22-rdf-syntax-ns#" opacity="1" writing-mode="lr-tb" stop-color="rgb(0, 0, 0)" shape-rendering="auto" glyph-orientation-horizontal="0deg" color-profile="auto" lighting-color="rgb(255, 255, 255)" color="rgb(0, 0, 0)" font-weight="400" alignment-baseline="auto" font-style="normal" version="1.0" color-interpolation-filters="linearrgb" text-anchor="start" stroke-linecap="butt" color-interpolation="srgb" font-variant="normal" word-spacing="normal" fill-opacity="1" text-rendering="auto" clip-path="none" text-decoration="none" letter-spacing="normal" glyph-orientation-vertical="auto" display="inline" font-size-adjust="none" overflow="hidden" fill="rgb(0, 0, 0)" font-stretch="normal" stroke-dasharray="none" inkscape:version="0.45.1" id="svg2.svg2" stroke-miterlimit="4" stop-opacity="1" color-rendering="auto" font-size="12" sodipodi:docbase="C:\Daten\alberts\projects\yfx" pointer-events="visiblepainted" mask="none" direction="ltr" baseline-shift="baseline" sodipodi:docname="uml_actor.svg" enable-background="accumulate" fill-rule="nonzero" image-rendering="auto" stroke-dashoffset="0" inkscape:output_extension="org.inkscape.output.svg.inkscape" marker-end="none" width="41" clip="auto" cursor="auto" stroke="none" filter="none" visibility="visible" kerning="auto" stroke-width="1" font-family="&quot;Arial&quot;,&quot;Helvetica&quot;,sans-serif" flood-opacity="1" clip-rule="nonzero" src="none" height="68.997391" unicode-bidi="normal" sodipodi:version="0.32" stroke-linejoin="miter" stroke-opacity="1" flood-color="rgb(0, 0, 0)" dominant-baseline="auto" marker-start="none" marker-mid="none">
            
          <defs id="svg2.defs4"/>
            
  
          <metadata id="svg2.metadata7">
    
  </metadata>
            
          <g inkscape:groupmode="layer" id="svg2.layer1" transform="translate(-29.5,-42.959476)" inkscape:label="Ebene 1">
                
            <a id="svg2.a3142" transform="matrix(1.0873906,0,0,1,-4.4741999,0)">
                    
              <path transform="translate(11.586889,5.2908993)" style="fill:none;fill-rule:evenodd;stroke:#000000;stroke-width:1px;stroke-linecap:butt;stroke-linejoin:miter;stroke-opacity:1" sodipodi:cx="38.509369" sodipodi:cy="47.36993" sodipodi:rx="8.5197716" id="svg2.path2160" d="M 47.02914 47.36993 A 8.5197716 9.2013531 0 1 1  29.989597,47.36993 A 8.5197716 9.2013531 0 1 1  47.02914 47.36993 z" sodipodi:ry="9.2013531" sodipodi:type="arc"/>
                  
            </a>
                
            <path style="fill:none" sodipodi:cx="43.962021" sodipodi:cy="48.392303" d="M 47.71072 48.392303 A 3.7486994 0 0 1 1  40.213321,48.392303 A 3.7486994 0 0 1 1  47.71072 48.392303 z" id="svg2.path3134" sodipodi:rx="3.7486994" sodipodi:ry="0" sodipodi:type="arc"/>
                
            <path style="fill:none;fill-rule:evenodd;stroke:#000000;stroke-width:1.24319649px;stroke-linecap:butt;stroke-linejoin:miter;stroke-opacity:1" d="M 50,61.33709 C 50,91.363211 50,92.247838 50,92.247838" id="svg2.path3136"/>
                
            <path style="fill:none;fill-rule:evenodd;stroke:#000000;stroke-width:1px;stroke-linecap:butt;stroke-linejoin:miter;stroke-opacity:1" d="M 69.760668,72.362183 C 69.760668,72.362183 69.760668,72.362183 50.239332,72.362183 C 30.239332,72.362183 30.239332,72.362183 30.239332,72.362183 L 30.239332,72.362183" id="svg2.path3138"/>
                
            <path style="fill:none;fill-rule:evenodd;stroke:#000000;stroke-width:1px;stroke-linecap:butt;stroke-linejoin:miter;stroke-opacity:1" d="M 30,111.45687 C 30,111.45687 30,111.45687 50,92.013532 C 70,111.45687 70,111.45687 70,111.45687" id="svg2.path3140"/>
              
          </g>
          
        </svg>
      </g>
    </g>
    <g font-size="13px" stroke-linecap="butt" transform="matrix(1,0,0,1,-86,57)" text-rendering="geometricPrecision" font-family="sans-serif" shape-rendering="geometricPrecision" stroke-miterlimit="1.45">
      <text x="939.2283" xml:space="preserve" y="377.0698" clip-path="url(#clipPath2)" stroke="none">Авторизованный</text>
      <text x="948.2515" xml:space="preserve" y="392.9961" clip-path="url(#clipPath2)" stroke="none">пользователь</text>
    </g>
    <g fill="white" text-rendering="geometricPrecision" shape-rendering="geometricPrecision" transform="matrix(1,0,0,1,-86,57)" stroke="white">
      <ellipse rx="66" ry="25" clip-path="url(#clipPath2)" cx="167.5" cy="275.5" stroke="none"/>
    </g>
    <g font-size="13px" stroke-linecap="butt" transform="matrix(1,0,0,1,-86,57)" text-rendering="geometricPrecision" font-family="sans-serif" shape-rendering="geometricPrecision" stroke-miterlimit="1.45">
      <text x="105.823" xml:space="preserve" y="280.6067" clip-path="url(#clipPath2)" stroke="none">Зарегистрироваться</text>
      <ellipse rx="66" fill="none" ry="25" clip-path="url(#clipPath2)" cx="167.5" cy="275.5"/>
    </g>
    <g fill="white" text-rendering="geometricPrecision" shape-rendering="geometricPrecision" transform="matrix(1,0,0,1,-86,57)" stroke="white">
      <ellipse rx="61" ry="34" clip-path="url(#clipPath2)" cx="1097" cy="12.9435" stroke="none"/>
    </g>
    <g font-size="13px" stroke-linecap="butt" transform="matrix(1,0,0,1,-86,57)" text-rendering="geometricPrecision" font-family="sans-serif" shape-rendering="geometricPrecision" stroke-miterlimit="1.45">
      <text x="1060.0281" xml:space="preserve" y="2.124" clip-path="url(#clipPath2)" stroke="none">Подключить</text>
      <text x="1064.2175" xml:space="preserve" y="18.0502" clip-path="url(#clipPath2)" stroke="none">персонажа</text>
      <text x="1063.4368" xml:space="preserve" y="33.9765" clip-path="url(#clipPath2)" stroke="none">к кампании</text>
      <ellipse rx="61" fill="none" ry="34" clip-path="url(#clipPath2)" cx="1097" cy="12.9435"/>
      <path fill="none" d="M316.9811 315.9437 L221.6047 341.1826" clip-path="url(#clipPath2)"/>
      <path fill="none" d="M316.9811 302.5648 L227.047 286.2815" clip-path="url(#clipPath2)"/>
      <path fill="none" d="M1008.1425 257.9715 L1084.9146 46.2696" clip-path="url(#clipPath2)"/>
    </g>
    <g fill="rgb(245,245,245)" text-rendering="geometricPrecision" shape-rendering="geometricPrecision" transform="matrix(1,0,0,1,-86,57)" stroke="rgb(245,245,245)">
      <rect x="1252.376" y="-30.5647" clip-path="url(#clipPath2)" width="162" rx="4" ry="4" height="247.3765" stroke="none"/>
      <rect x="1252.376" y="-30.5647" clip-path="url(#clipPath2)" fill="rgb(235,235,235)" width="162" height="22.3765" stroke="none"/>
    </g>
    <g font-size="15px" stroke-linecap="butt" transform="matrix(1,0,0,1,-86,57)" text-rendering="geometricPrecision" font-family="sans-serif" shape-rendering="geometricPrecision" stroke-miterlimit="1.45">
      <text x="1277.1709" xml:space="preserve" y="-13.4841" clip-path="url(#clipPath2)" stroke="none">Персонаж в облаке</text>
      <rect x="1252.376" y="-30.5647" clip-path="url(#clipPath2)" fill="none" width="162" stroke-dasharray="6,2" rx="4" ry="4" height="247.3765"/>
    </g>
    <g fill="white" text-rendering="geometricPrecision" shape-rendering="geometricPrecision" transform="matrix(1,0,0,1,-86,57)" stroke="white">
      <ellipse rx="66" ry="25" clip-path="url(#clipPath2)" cx="1333.376" cy="31.8118" stroke="none"/>
    </g>
    <g font-size="13px" stroke-linecap="butt" transform="matrix(1,0,0,1,-86,57)" text-rendering="geometricPrecision" font-family="sans-serif" shape-rendering="geometricPrecision" stroke-miterlimit="1.45">
      <text x="1301.0029" xml:space="preserve" y="28.9553" clip-path="url(#clipPath2)" stroke="none">Сохранить</text>
      <text x="1300.5935" xml:space="preserve" y="44.8816" clip-path="url(#clipPath2)" stroke="none">персонажа</text>
      <ellipse rx="66" fill="none" ry="25" clip-path="url(#clipPath2)" cx="1333.376" cy="31.8118"/>
    </g>
    <g fill="white" text-rendering="geometricPrecision" shape-rendering="geometricPrecision" transform="matrix(1,0,0,1,-86,57)" stroke="white">
      <ellipse rx="66" ry="25" clip-path="url(#clipPath2)" cx="1333.376" cy="104.3118" stroke="none"/>
    </g>
    <g font-size="13px" stroke-linecap="butt" transform="matrix(1,0,0,1,-86,57)" text-rendering="geometricPrecision" font-family="sans-serif" shape-rendering="geometricPrecision" stroke-miterlimit="1.45">
      <text x="1303.6245" xml:space="preserve" y="101.4553" clip-path="url(#clipPath2)" stroke="none">Загрузить</text>
      <text x="1300.5935" xml:space="preserve" y="117.3816" clip-path="url(#clipPath2)" stroke="none">персонажа</text>
      <ellipse rx="66" fill="none" ry="25" clip-path="url(#clipPath2)" cx="1333.376" cy="104.3118"/>
    </g>
    <g fill="white" text-rendering="geometricPrecision" shape-rendering="geometricPrecision" transform="matrix(1,0,0,1,-86,57)" stroke="white">
      <ellipse rx="66" ry="25" clip-path="url(#clipPath2)" cx="1333.376" cy="176.8118" stroke="none"/>
    </g>
    <g font-size="13px" stroke-linecap="butt" transform="matrix(1,0,0,1,-86,57)" text-rendering="geometricPrecision" font-family="sans-serif" shape-rendering="geometricPrecision" stroke-miterlimit="1.45">
      <text x="1297.1245" xml:space="preserve" y="173.9553" clip-path="url(#clipPath2)" stroke="none">Поделиться</text>
      <text x="1296.1248" xml:space="preserve" y="189.8816" clip-path="url(#clipPath2)" stroke="none">персонажем</text>
      <ellipse rx="66" fill="none" ry="25" clip-path="url(#clipPath2)" cx="1333.376" cy="176.8118"/>
      <path fill="none" d="M1305.2565 54.4292 L1019.9786 283.8872" clip-path="url(#clipPath2)"/>
      <path fill="none" d="M1019.97 290.222 L1297.8553 125.3823" clip-path="url(#clipPath2)"/>
      <path fill="none" d="M1286.9077 194.5652 L1019.9734 296.5485" clip-path="url(#clipPath2)"/>
    </g>
    <g fill="rgb(245,245,245)" text-rendering="geometricPrecision" shape-rendering="geometricPrecision" transform="matrix(1,0,0,1,-86,57)" stroke="rgb(245,245,245)">
      <rect x="1252.376" y="235.6235" clip-path="url(#clipPath2)" width="162" rx="4" ry="4" height="247.3765" stroke="none"/>
      <rect x="1252.376" y="235.6235" clip-path="url(#clipPath2)" fill="rgb(235,235,235)" width="162" height="22.3765" stroke="none"/>
    </g>
    <g font-size="15px" stroke-linecap="butt" transform="matrix(1,0,0,1,-86,57)" text-rendering="geometricPrecision" font-family="sans-serif" shape-rendering="geometricPrecision" stroke-miterlimit="1.45">
      <text x="1278.4966" xml:space="preserve" y="252.7041" clip-path="url(#clipPath2)" stroke="none">Кампания в облаке</text>
      <rect x="1252.376" y="235.6235" clip-path="url(#clipPath2)" fill="none" width="162" stroke-dasharray="6,2" rx="4" ry="4" height="247.3765"/>
    </g>
    <g fill="white" text-rendering="geometricPrecision" shape-rendering="geometricPrecision" transform="matrix(1,0,0,1,-86,57)" stroke="white">
      <ellipse rx="66" ry="25" clip-path="url(#clipPath2)" cx="1333.376" cy="298" stroke="none"/>
    </g>
    <g font-size="13px" stroke-linecap="butt" transform="matrix(1,0,0,1,-86,57)" text-rendering="geometricPrecision" font-family="sans-serif" shape-rendering="geometricPrecision" stroke-miterlimit="1.45">
      <text x="1301.0029" xml:space="preserve" y="295.1436" clip-path="url(#clipPath2)" stroke="none">Сохранить</text>
      <text x="1303.2183" xml:space="preserve" y="311.0698" clip-path="url(#clipPath2)" stroke="none">кампанию</text>
      <ellipse rx="66" fill="none" ry="25" clip-path="url(#clipPath2)" cx="1333.376" cy="298"/>
    </g>
    <g fill="white" text-rendering="geometricPrecision" shape-rendering="geometricPrecision" transform="matrix(1,0,0,1,-86,57)" stroke="white">
      <ellipse rx="66" ry="25" clip-path="url(#clipPath2)" cx="1333.376" cy="370.5" stroke="none"/>
    </g>
    <g font-size="13px" stroke-linecap="butt" transform="matrix(1,0,0,1,-86,57)" text-rendering="geometricPrecision" font-family="sans-serif" shape-rendering="geometricPrecision" stroke-miterlimit="1.45">
      <text x="1303.6245" xml:space="preserve" y="367.6436" clip-path="url(#clipPath2)" stroke="none">Загрузить</text>
      <text x="1303.2183" xml:space="preserve" y="383.5698" clip-path="url(#clipPath2)" stroke="none">кампанию</text>
      <ellipse rx="66" fill="none" ry="25" clip-path="url(#clipPath2)" cx="1333.376" cy="370.5"/>
    </g>
    <g fill="white" text-rendering="geometricPrecision" shape-rendering="geometricPrecision" transform="matrix(1,0,0,1,-86,57)" stroke="white">
      <ellipse rx="66" ry="25" clip-path="url(#clipPath2)" cx="1333.376" cy="443" stroke="none"/>
    </g>
    <g font-size="13px" stroke-linecap="butt" transform="matrix(1,0,0,1,-86,57)" text-rendering="geometricPrecision" font-family="sans-serif" shape-rendering="geometricPrecision" stroke-miterlimit="1.45">
      <text x="1297.1245" xml:space="preserve" y="440.1436" clip-path="url(#clipPath2)" stroke="none">Поделиться</text>
      <text x="1300.8474" xml:space="preserve" y="456.0698" clip-path="url(#clipPath2)" stroke="none">кампанией</text>
      <ellipse rx="66" fill="none" ry="25" clip-path="url(#clipPath2)" cx="1333.376" cy="443"/>
      <path fill="none" d="M1019.97 307.1272 L1267.5702 299.9164" clip-path="url(#clipPath2)"/>
      <path fill="none" d="M1019.97 313.455 L1273.8876 359.6721" clip-path="url(#clipPath2)"/>
      <path fill="none" d="M1019.97 319.7828 L1287.5835 424.9964" clip-path="url(#clipPath2)"/>
    </g>
    <g fill="rgb(245,245,245)" text-rendering="geometricPrecision" shape-rendering="geometricPrecision" transform="matrix(1,0,0,1,-86,57)" stroke="rgb(245,245,245)">
      <rect x="583" y="-41.7529" clip-path="url(#clipPath2)" width="182" rx="4" ry="4" height="247.3765" stroke="none"/>
      <rect x="583" y="-41.7529" clip-path="url(#clipPath2)" fill="rgb(235,235,235)" width="182" height="22.3765" stroke="none"/>
    </g>
    <g font-size="15px" stroke-linecap="butt" transform="matrix(1,0,0,1,-86,57)" text-rendering="geometricPrecision" font-family="sans-serif" shape-rendering="geometricPrecision" stroke-miterlimit="1.45">
      <text x="614.4209" xml:space="preserve" y="-24.6724" clip-path="url(#clipPath2)" stroke="none">Локальный персонаж</text>
      <rect x="583" y="-41.7529" clip-path="url(#clipPath2)" fill="none" width="182" stroke-dasharray="6,2" rx="4" ry="4" height="247.3765"/>
    </g>
    <g fill="white" text-rendering="geometricPrecision" shape-rendering="geometricPrecision" transform="matrix(1,0,0,1,-86,57)" stroke="white">
      <ellipse rx="66" ry="25" clip-path="url(#clipPath2)" cx="674" cy="20.6235" stroke="none"/>
    </g>
    <g font-size="13px" stroke-linecap="butt" transform="matrix(1,0,0,1,-86,57)" text-rendering="geometricPrecision" font-family="sans-serif" shape-rendering="geometricPrecision" stroke-miterlimit="1.45">
      <text x="648.9395" xml:space="preserve" y="17.7671" clip-path="url(#clipPath2)" stroke="none">Создать</text>
      <text x="641.2175" xml:space="preserve" y="33.6934" clip-path="url(#clipPath2)" stroke="none">персонажа</text>
      <ellipse rx="66" fill="none" ry="25" clip-path="url(#clipPath2)" cx="674" cy="20.6235"/>
    </g>
    <g fill="white" text-rendering="geometricPrecision" shape-rendering="geometricPrecision" transform="matrix(1,0,0,1,-86,57)" stroke="white">
      <ellipse rx="66" ry="25" clip-path="url(#clipPath2)" cx="674" cy="93.1235" stroke="none"/>
    </g>
    <g font-size="13px" stroke-linecap="butt" transform="matrix(1,0,0,1,-86,57)" text-rendering="geometricPrecision" font-family="sans-serif" shape-rendering="geometricPrecision" stroke-miterlimit="1.45">
      <text x="628.5286" xml:space="preserve" y="90.2671" clip-path="url(#clipPath2)" stroke="none">Редактировать</text>
      <text x="641.2175" xml:space="preserve" y="106.1934" clip-path="url(#clipPath2)" stroke="none">персонажа</text>
      <ellipse rx="66" fill="none" ry="25" clip-path="url(#clipPath2)" cx="674" cy="93.1235"/>
    </g>
    <g fill="white" text-rendering="geometricPrecision" shape-rendering="geometricPrecision" transform="matrix(1,0,0,1,-86,57)" stroke="white">
      <ellipse rx="66" ry="25" clip-path="url(#clipPath2)" cx="674" cy="165.6235" stroke="none"/>
    </g>
    <g font-size="13px" stroke-linecap="butt" transform="matrix(1,0,0,1,-86,57)" text-rendering="geometricPrecision" font-family="sans-serif" shape-rendering="geometricPrecision" stroke-miterlimit="1.45">
      <text x="625.2151" xml:space="preserve" y="162.7671" clip-path="url(#clipPath2)" stroke="none">Экспортировать</text>
      <text x="641.2175" xml:space="preserve" y="178.6934" clip-path="url(#clipPath2)" stroke="none">персонажа</text>
      <ellipse rx="66" fill="none" ry="25" clip-path="url(#clipPath2)" cx="674" cy="165.6235"/>
      <path fill="none" d="M376.9976 281.6373 L647.8762 43.5818" clip-path="url(#clipPath2)"/>
      <path fill="none" d="M960.0085 280.7252 L699.3768 43.7017" clip-path="url(#clipPath2)"/>
      <path fill="none" d="M641.039 114.7827 L376.971 288.3056" clip-path="url(#clipPath2)"/>
      <path fill="none" d="M706.1183 114.9636 L960.0247 287.6171" clip-path="url(#clipPath2)"/>
      <path fill="none" d="M376.9777 294.9477 L630.6807 184.4849" clip-path="url(#clipPath2)"/>
      <path fill="none" d="M960.0278 294.4958 L716.4716 184.7595" clip-path="url(#clipPath2)"/>
    </g>
    <g fill="rgb(245,245,245)" text-rendering="geometricPrecision" shape-rendering="geometricPrecision" transform="matrix(1,0,0,1,-86,57)" stroke="rgb(245,245,245)">
      <rect x="582" y="220.6235" clip-path="url(#clipPath2)" width="184" rx="4" ry="4" height="247.3765" stroke="none"/>
      <rect x="582" y="220.6235" clip-path="url(#clipPath2)" fill="rgb(235,235,235)" width="184" height="22.3765" stroke="none"/>
    </g>
    <g font-size="15px" stroke-linecap="butt" transform="matrix(1,0,0,1,-86,57)" text-rendering="geometricPrecision" font-family="sans-serif" shape-rendering="geometricPrecision" stroke-miterlimit="1.45">
      <text x="618.9585" xml:space="preserve" y="237.7041" clip-path="url(#clipPath2)" stroke="none">Локальная кампания</text>
      <rect x="582" y="220.6235" clip-path="url(#clipPath2)" fill="none" width="184" stroke-dasharray="6,2" rx="4" ry="4" height="247.3765"/>
    </g>
    <g fill="white" text-rendering="geometricPrecision" shape-rendering="geometricPrecision" transform="matrix(1,0,0,1,-86,57)" stroke="white">
      <ellipse rx="66" ry="25" clip-path="url(#clipPath2)" cx="674" cy="283" stroke="none"/>
    </g>
    <g font-size="13px" stroke-linecap="butt" transform="matrix(1,0,0,1,-86,57)" text-rendering="geometricPrecision" font-family="sans-serif" shape-rendering="geometricPrecision" stroke-miterlimit="1.45">
      <text x="648.9395" xml:space="preserve" y="280.1436" clip-path="url(#clipPath2)" stroke="none">Создать</text>
      <text x="643.8423" xml:space="preserve" y="296.0698" clip-path="url(#clipPath2)" stroke="none">кампанию</text>
      <ellipse rx="66" fill="none" ry="25" clip-path="url(#clipPath2)" cx="674" cy="283"/>
    </g>
    <g fill="white" text-rendering="geometricPrecision" shape-rendering="geometricPrecision" transform="matrix(1,0,0,1,-86,57)" stroke="white">
      <ellipse rx="66" ry="25" clip-path="url(#clipPath2)" cx="674" cy="355.5" stroke="none"/>
    </g>
    <g font-size="13px" stroke-linecap="butt" transform="matrix(1,0,0,1,-86,57)" text-rendering="geometricPrecision" font-family="sans-serif" shape-rendering="geometricPrecision" stroke-miterlimit="1.45">
      <text x="628.5286" xml:space="preserve" y="352.6436" clip-path="url(#clipPath2)" stroke="none">Редактировать</text>
      <text x="643.8423" xml:space="preserve" y="368.5698" clip-path="url(#clipPath2)" stroke="none">кампанию</text>
      <ellipse rx="66" fill="none" ry="25" clip-path="url(#clipPath2)" cx="674" cy="355.5"/>
    </g>
    <g fill="white" text-rendering="geometricPrecision" shape-rendering="geometricPrecision" transform="matrix(1,0,0,1,-86,57)" stroke="white">
      <ellipse rx="66" ry="25" clip-path="url(#clipPath2)" cx="674" cy="428" stroke="none"/>
    </g>
    <g font-size="13px" stroke-linecap="butt" transform="matrix(1,0,0,1,-86,57)" text-rendering="geometricPrecision" font-family="sans-serif" shape-rendering="geometricPrecision" stroke-miterlimit="1.45">
      <text x="625.2151" xml:space="preserve" y="425.1436" clip-path="url(#clipPath2)" stroke="none">Экспортировать</text>
      <text x="643.8423" xml:space="preserve" y="441.0698" clip-path="url(#clipPath2)" stroke="none">кампанию</text>
      <ellipse rx="66" fill="none" ry="25" clip-path="url(#clipPath2)" cx="674" cy="428"/>
    </g>
    <g fill="white" text-rendering="geometricPrecision" shape-rendering="geometricPrecision" transform="matrix(1,0,0,1,-86,57)" stroke="white">
      <ellipse rx="95.96" ry="32.68" clip-path="url(#clipPath2)" cx="877.272" cy="8.0283" stroke="none"/>
    </g>
    <g font-size="13px" stroke-linecap="butt" transform="matrix(1,0,0,1,-86,57)" text-rendering="geometricPrecision" font-family="sans-serif" shape-rendering="geometricPrecision" stroke-miterlimit="1.45">
      <text x="797.2122" xml:space="preserve" y="5.1719" clip-path="url(#clipPath2)" stroke="none">Редактировать персонажа</text>
      <text x="809.5552" xml:space="preserve" y="21.0982" clip-path="url(#clipPath2)" stroke="none">подключённого игрока</text>
      <ellipse rx="95.96" fill="none" ry="32.68" clip-path="url(#clipPath2)" cx="877.272" cy="8.0283"/>
      <path fill="none" d="M609.3046 287.9461 L377.0024 305.7062" clip-path="url(#clipPath2)"/>
      <path fill="none" d="M738.6059 288.1112 L960.0181 305.628" clip-path="url(#clipPath2)"/>
      <path fill="none" d="M376.9777 312.3546 L612.3759 346.5485" clip-path="url(#clipPath2)"/>
      <path fill="none" d="M960.0278 312.5053 L735.3462 346.2787" clip-path="url(#clipPath2)"/>
      <path fill="none" d="M626.5975 410.6046 L377.0008 319.0095" clip-path="url(#clipPath2)"/>
      <path fill="none" d="M720.61 410.3 L959.9764 319.4014" clip-path="url(#clipPath2)"/>
      <path fill="none" d="M971.2166 258.0169 L889.4536 40.4439" clip-path="url(#clipPath2)"/>
    </g>
  </g>
</svg>
